<svg width="8" height="8" viewBox="0 0 8 8" fill="none" xmlns="http://www.w3.org/2000/svg">
<path fill-rule="evenodd" clip-rule="evenodd" d="M2.05393 0H7.21018C7.30134 0 7.38878 0.0362164 7.45324 0.100682C7.51771 0.165148 7.55393 0.252582 7.55393 0.34375V5.5C7.55393 5.59117 7.51771 5.6786 7.45324 5.74307C7.38878 5.80753 7.30134 5.84375 7.21018 5.84375C7.11901 5.84375 7.03157 5.80753 6.96711 5.74307C6.90264 5.6786 6.86643 5.59117 6.86643 5.5V1.17333L0.578092 7.46167C0.512929 7.52239 0.426741 7.55544 0.337686 7.55387C0.248631 7.5523 0.163663 7.51622 0.100682 7.45324C0.0377012 7.39026 0.00162482 7.30529 5.35549e-05 7.21624C-0.00151771 7.12718 0.0315387 7.041 0.0922588 6.97583L6.38059 0.6875H2.05393C1.96276 0.6875 1.87532 0.651284 1.81086 0.586818C1.74639 0.522352 1.71018 0.434918 1.71018 0.34375C1.71018 0.252582 1.74639 0.165148 1.81086 0.100682C1.87532 0.0362164 1.96276 0 2.05393 0Z" fill="#F26E3A"/>
</svg>
