<svg width="15" height="15" viewBox="0 0 15 15" fill="none" xmlns="http://www.w3.org/2000/svg">
<path d="M14.937 5.40348C14.8654 5.18098 14.7335 4.98266 14.556 4.83047C14.3786 4.67829 14.1624 4.57818 13.9316 4.54123L10.3095 3.95257L8.63035 0.689633C8.52335 0.481913 8.36129 0.30766 8.16182 0.186007C7.96235 0.0643534 7.73322 0 7.49955 0C7.26589 0 7.03675 0.0643534 6.83729 0.186007C6.63782 0.30766 6.47575 0.481913 6.36875 0.689633L4.68965 3.95257L1.06755 4.54123C0.836946 4.57876 0.621139 4.67909 0.443799 4.83121C0.266466 4.98332 0.134454 5.18134 0.0622536 5.40354C-0.00994639 5.62575 -0.0195464 5.86353 0.0345069 6.09086C0.0885603 6.31813 0.204179 6.52613 0.368679 6.69206L2.95305 9.29733L2.39368 12.9241C2.35779 13.1551 2.38629 13.3915 2.47607 13.6073C2.56584 13.8231 2.71341 14.0101 2.90253 14.1475C3.09165 14.2849 3.315 14.3675 3.54802 14.3861C3.78105 14.4048 4.0147 14.3589 4.2233 14.2533L7.49955 12.6005L10.7759 14.2533C10.9845 14.3587 11.2181 14.4045 11.451 14.3857C11.684 14.3669 11.9072 14.2843 12.0963 14.1469C12.2854 14.0095 12.4329 13.8227 12.5227 13.6071C12.6126 13.3913 12.6412 13.155 12.6056 12.9241L12.0462 9.29733L14.6306 6.69206C14.7956 6.52646 14.9115 6.31846 14.9656 6.09106C15.0197 5.86359 15.0098 5.62564 14.937 5.40348ZM13.9205 5.98786L10.9808 8.95126L11.6172 13.0766C11.6251 13.126 11.6192 13.1766 11.6 13.2229C11.5809 13.2691 11.5494 13.3091 11.5089 13.3385C11.4684 13.3679 11.4206 13.3855 11.3707 13.3895C11.3208 13.3933 11.2708 13.3833 11.2263 13.3606L7.49955 11.4805L3.7728 13.3607C3.72825 13.3834 3.67827 13.3934 3.62839 13.3895C3.57851 13.3856 3.53069 13.368 3.49021 13.3386C3.44973 13.3092 3.41819 13.2691 3.39907 13.2229C3.37995 13.1767 3.37401 13.1261 3.38189 13.0767L4.0183 8.95126L1.07865 5.98779C1.04354 5.95233 1.01887 5.90793 1.00735 5.85936C0.995826 5.81081 0.997879 5.76001 1.0133 5.71255C1.02872 5.66509 1.05691 5.62279 1.09477 5.59029C1.13263 5.55778 1.17871 5.53632 1.22796 5.52826L5.34799 4.8587L7.25795 1.14723C7.28082 1.10283 7.31542 1.06559 7.35802 1.03959C7.40069 1.01358 7.44962 0.999827 7.49955 0.999827C7.54949 0.999827 7.59842 1.01358 7.64109 1.03959C7.68369 1.06559 7.71829 1.10283 7.74115 1.14723L9.65109 4.8587L13.7712 5.52826C13.8204 5.53632 13.8665 5.55778 13.9044 5.59029C13.9422 5.62279 13.9704 5.66509 13.9858 5.71255C14.0012 5.76001 14.0033 5.81081 13.9918 5.85936C13.9802 5.90793 13.9556 5.95239 13.9205 5.98786Z" fill="#F26E3A"/>
</svg>
