<svg width="12" height="16" viewBox="0 0 12 16" fill="none" xmlns="http://www.w3.org/2000/svg">
<path d="M9.7634 3.78349C11.135 3.78349 11.8377 4.45234 11.8652 5.77742L11.8661 5.85937V13.5737C11.8661 14.9244 11.1983 15.6202 10.039 15.6486L9.96429 15.6495H2.10266C0.737685 15.6495 0.0286663 14.9871 0.000851563 13.656L0 13.5737V5.85937C0 4.5075 0.681719 3.81162 2.01991 3.78432L2.10266 3.78349H9.7634ZM9.75 4.8616H2.12277C1.47472 4.8616 1.10261 5.20025 1.07928 5.85328L1.07811 5.91963V13.5201C1.07811 14.194 1.42931 14.5482 2.05889 14.5703L2.12277 14.5714H9.95088C10.397 14.5714 10.762 14.2406 10.7866 13.5909L10.7879 13.5201V5.91963C10.7879 5.24567 10.4367 4.88528 9.81325 4.86273L9.75 4.8616ZM7.75494 6.6436C8.06096 6.56853 8.14703 6.65845 8.15453 6.86619L8.15509 6.89823V8.08654C8.15509 8.40471 8.08064 8.48467 7.85091 8.55537L7.77311 8.57766L6.3544 8.91717C6.22424 8.94547 6.17333 9.00017 6.16712 9.18973L6.16646 9.23246V11.312C6.16646 12.1911 5.57834 12.8156 4.71137 12.8156C4.099 12.8156 3.71097 12.4397 3.71097 11.9244C3.71097 11.3514 4.14508 11.0265 4.67077 10.8736L4.72954 10.8573L5.28734 10.7118L5.37017 10.6872C5.5576 10.6271 5.60247 10.5731 5.61222 10.4178L5.6145 10.3501L5.61471 7.57729C5.61471 7.25364 5.66933 7.17319 5.89974 7.1069L5.97849 7.08617L7.75494 6.6436ZM9.18749 1.77454C9.83405 1.77454 10.1248 2.08668 10.2344 2.65669L10.2455 2.71874H1.42634C1.52331 2.13038 1.79508 1.79796 2.41645 1.77573L2.48437 1.77454H9.18749ZM8.12946 0C8.72351 0 9.04363 0.273959 9.10176 0.803894L9.10714 0.863829H2.6116C2.65034 0.314957 2.95684 0.0213951 3.53107 0.00112648L3.59597 0H8.12946Z" fill="#F26E3A"/>
</svg>
