<svg width="12" height="16" viewBox="0 0 12 16" fill="none" xmlns="http://www.w3.org/2000/svg">
<g clip-path="url(#clip0_342_369)">
<path d="M11.3701 2.85645L9.66699 3.58008L9.36035 3.70996L9.3623 4.04297V4.08496C9.36246 4.11267 9.36298 4.15391 9.36328 4.20605C9.36388 4.31033 9.36512 4.46029 9.36621 4.64258C9.36839 5.00761 9.37143 5.50352 9.375 6.02539C9.38213 7.06729 9.39042 8.21987 9.39844 8.64551C9.40648 9.07252 9.42324 9.67858 9.36426 10.3164C9.3047 10.9604 9.17143 11.5877 8.91113 12.0664C8.37296 13.056 7.64774 13.5255 6.58691 13.9111C6.03712 14.1109 5.33166 14.3254 4.70508 14.5137C4.1068 14.6934 3.53103 14.8632 3.30664 14.9609C3.09092 15.055 2.86947 15.1779 2.70898 15.2725C2.67696 15.2913 2.64686 15.3094 2.61914 15.3262L2.61816 15.3252V8.89453L4.54102 9.77246V12.8018L5.21484 12.5518L5.21582 12.5508C5.21655 12.5505 5.21755 12.5503 5.21875 12.5498C5.22121 12.5489 5.22514 12.5475 5.22949 12.5459C5.23811 12.5426 5.25031 12.5381 5.26562 12.5322C5.29707 12.5201 5.34256 12.5027 5.39746 12.4805C5.50697 12.4362 5.65831 12.3725 5.8252 12.2959C6.14384 12.1497 6.57498 11.9308 6.86328 11.6846C7.1236 11.4623 7.34748 11.2271 7.47754 10.8389C7.59453 10.4894 7.62305 10.05 7.62305 9.45117V4.50781L6.92773 4.80273L3.80762 6.12402L1.24023 4.9209L11.3701 0.746094V2.85645Z" stroke="#F26E3A"/>
</g>
<defs>
<clipPath id="clip0_342_369">
<rect width="12" height="16" fill="white"/>
</clipPath>
</defs>
</svg>
