<svg width="17" height="17" viewBox="0 0 17 17" fill="none" xmlns="http://www.w3.org/2000/svg">
<path d="M6.84961 7.68333H9.34961M14.7663 4.76667V13.9333C14.7663 14.3754 14.5907 14.7993 14.2781 15.1118C13.9656 15.4244 13.5416 15.6 13.0996 15.6H3.09961C2.65758 15.6 2.23366 15.4244 1.9211 15.1118C1.60854 14.7993 1.43294 14.3754 1.43294 13.9333V4.76667M15.5996 4.76667V2.26667C15.5996 1.82464 15.424 1.40071 15.1115 1.08815C14.7989 0.775593 14.375 0.599998 13.9329 0.599998H2.26628C1.82425 0.599998 1.40033 0.775593 1.08776 1.08815C0.775204 1.40071 0.599609 1.82464 0.599609 2.26667V4.76667H15.5996Z" stroke="#F26E3A" stroke-width="1.2" stroke-linecap="round" stroke-linejoin="round"/>
</svg>
