<svg width="17" height="16" viewBox="0 0 17 16" fill="none" xmlns="http://www.w3.org/2000/svg">
<path fill-rule="evenodd" clip-rule="evenodd" d="M1.275 7.4375C2.5857 7.4409 3.28865 7.4698 3.825 7.7792C4.21262 8.003 4.5345 8.32488 4.7583 8.7125C5.1 9.3041 5.1 10.098 5.1 11.6875V13.3875C5.1 14.0638 4.83134 14.7124 4.35312 15.1906C3.8749 15.6688 3.2263 15.9375 2.55 15.9375C1.8737 15.9375 1.2251 15.6688 0.746878 15.1906C0.26866 14.7124 0 14.0638 0 13.3875V7.4375C0 3.26145 3.7825 0 8.2875 0C12.7925 0 16.575 3.26145 16.575 7.4375V13.3875C16.575 14.0638 16.3063 14.7124 15.8281 15.1906C15.3499 15.6688 14.7013 15.9375 14.025 15.9375C13.3487 15.9375 12.7001 15.6688 12.2219 15.1906C11.7437 14.7124 11.475 14.0638 11.475 13.3875V11.6875C11.475 10.098 11.475 9.3041 11.8167 8.7125C12.0405 8.32488 12.3624 8.003 12.75 7.7792C13.2864 7.4698 13.9893 7.4409 15.3 7.4375C15.3 4.10295 12.2332 1.275 8.2875 1.275C4.3418 1.275 1.275 4.10295 1.275 7.4375ZM3.825 13.3875V11.6875C3.825 10.8698 3.82415 10.3411 3.7876 9.94075C3.7536 9.55825 3.6941 9.4197 3.65415 9.35C3.54225 9.15619 3.38131 8.99525 3.1875 8.88335C3.1178 8.8434 2.97925 8.78475 2.59675 8.7499C2.27035 8.72015 1.85895 8.7142 1.275 8.7125V13.3875C1.275 13.7257 1.40933 14.05 1.64844 14.2891C1.88755 14.5282 2.21185 14.6625 2.55 14.6625C2.88815 14.6625 3.21245 14.5282 3.45156 14.2891C3.69067 14.05 3.825 13.7257 3.825 13.3875ZM12.75 11.6875V13.3875C12.75 13.7257 12.8843 14.05 13.1234 14.2891C13.3625 14.5282 13.6868 14.6625 14.025 14.6625C14.3632 14.6625 14.6875 14.5282 14.9266 14.2891C15.1657 14.05 15.3 13.7257 15.3 13.3875V8.7125C14.7161 8.7142 14.3055 8.721 13.9783 8.7499C13.5958 8.7839 13.4572 8.8434 13.3875 8.88335C13.1937 8.99525 13.0328 9.15619 12.9209 9.35C12.8809 9.4197 12.8223 9.55825 12.7874 9.94075C12.7509 10.3411 12.75 10.8698 12.75 11.6875Z" fill="#F26E3A"/>
</svg>
