<svg width="18" height="18" viewBox="0 0 18 18" fill="none" xmlns="http://www.w3.org/2000/svg">
<path d="M8.52539 16.4C12.8746 16.4 16.4004 12.8742 16.4004 8.52499C16.4004 4.17575 12.8746 0.649994 8.52539 0.649994C4.17615 0.649994 0.650391 4.17575 0.650391 8.52499C0.650391 12.8742 4.17615 16.4 8.52539 16.4Z" stroke="#F26E3A" stroke-width="1.3" stroke-linecap="round" stroke-linejoin="round"/>
<path d="M3.27539 8.52499C3.27539 7.13261 3.82851 5.79725 4.81308 4.81268C5.79765 3.82812 7.133 3.27499 8.52539 3.27499" stroke="#F26E3A" stroke-width="1.3" stroke-linecap="round" stroke-linejoin="round"/>
<path d="M13.7754 8.52499C13.7754 9.91738 13.2223 11.2527 12.2377 12.2373C11.2531 13.2219 9.91778 13.775 8.52539 13.775" stroke="#F26E3A" stroke-width="1.3" stroke-linecap="round" stroke-linejoin="round"/>
<path d="M8.52539 10.4937C9.6127 10.4937 10.4941 9.6123 10.4941 8.52499C10.4941 7.43768 9.6127 6.55624 8.52539 6.55624C7.43808 6.55624 6.55664 7.43768 6.55664 8.52499C6.55664 9.6123 7.43808 10.4937 8.52539 10.4937Z" stroke="#F26E3A" stroke-width="1.3" stroke-linecap="round" stroke-linejoin="round"/>
</svg>
