<svg width="17" height="17" viewBox="0 0 17 17" fill="none" xmlns="http://www.w3.org/2000/svg">
<path fill-rule="evenodd" clip-rule="evenodd" d="M10.9211 0.423146C11.0534 0.704238 10.9327 1.03934 10.6516 1.17162L6.55347 3.10016C6.57551 3.10016 6.59762 3.10016 6.61979 3.10016H9.70441C11.0828 3.10014 12.1745 3.10014 13.0289 3.21501C13.9082 3.33323 14.6199 3.58232 15.1812 4.14359C15.7424 4.70486 15.9915 5.41657 16.1098 6.29589C16.2246 7.15032 16.2246 8.24202 16.2246 9.62037V9.70497C16.2246 11.0833 16.2246 12.175 16.1098 13.0294C15.9915 13.9087 15.7424 14.6205 15.1812 15.1817C14.6199 15.743 13.9082 15.9921 13.0289 16.1103C12.1745 16.2252 11.0828 16.2252 9.70441 16.2252H6.6198C5.24148 16.2252 4.14975 16.2252 3.29534 16.1103C2.41603 15.9921 1.70432 15.743 1.14304 15.1817C0.58177 14.6205 0.33268 13.9087 0.214465 13.0294C0.0995872 12.175 0.0995947 11.0833 0.0996097 9.70497V9.62037C0.0995947 8.24202 0.0995872 7.15032 0.214465 6.29589C0.33268 5.41657 0.58177 4.70486 1.14304 4.14359C1.70432 3.58232 2.41603 3.33323 3.29534 3.21501C3.44832 3.19444 3.60891 3.17755 3.7774 3.16369C3.78404 3.16024 3.79077 3.15691 3.7976 3.15369L10.1726 0.153693C10.4537 0.0214157 10.7888 0.142053 10.9211 0.423146ZM3.44525 4.32998C2.69068 4.43142 2.25594 4.62168 1.93853 4.93908C1.62113 5.25649 1.43087 5.69123 1.32943 6.4458C1.2258 7.21655 1.22461 8.23257 1.22461 9.66267C1.22461 11.0928 1.2258 12.1088 1.32943 12.8795C1.43087 13.6341 1.62113 14.0688 1.93853 14.3862C2.25594 14.7036 2.69068 14.8939 3.44525 14.9953C4.21599 15.099 5.23199 15.1002 6.66211 15.1002H9.66211C11.0922 15.1002 12.1082 15.099 12.879 14.9953C13.6335 14.8939 14.0683 14.7036 14.3857 14.3862C14.7031 14.0688 14.8934 13.6341 14.9948 12.8795C15.0984 12.1088 15.0996 11.0928 15.0996 9.66267C15.0996 8.23257 15.0984 7.21655 14.9948 6.4458C14.8934 5.69123 14.7031 5.25649 14.3857 4.93908C14.0683 4.62168 13.6335 4.43142 12.879 4.32998C12.1082 4.22635 11.0922 4.22516 9.66211 4.22516H6.66211C5.23199 4.22516 4.21599 4.22635 3.44525 4.32998ZM5.16211 7.97517C4.23013 7.97517 3.47461 8.73065 3.47461 9.66267C3.47461 10.5946 4.23013 11.3502 5.16211 11.3502C6.09409 11.3502 6.84961 10.5946 6.84961 9.66267C6.84961 8.73065 6.09409 7.97517 5.16211 7.97517ZM2.34961 9.66267C2.34961 8.10935 3.60881 6.85017 5.16211 6.85017C6.71543 6.85017 7.97461 8.10935 7.97461 9.66267C7.97461 11.2159 6.71543 12.4752 5.16211 12.4752C3.60881 12.4752 2.34961 11.2159 2.34961 9.66267ZM8.72461 7.41267C8.72461 7.10202 8.97646 6.85017 9.28711 6.85017H13.4121C13.7228 6.85017 13.9746 7.10202 13.9746 7.41267C13.9746 7.72332 13.7228 7.97517 13.4121 7.97517H9.28711C8.97646 7.97517 8.72461 7.72332 8.72461 7.41267ZM8.72461 9.66267C8.72461 9.35202 8.97646 9.10017 9.28711 9.10017H13.4121C13.7228 9.10017 13.9746 9.35202 13.9746 9.66267C13.9746 9.97332 13.7228 10.2252 13.4121 10.2252H9.28711C8.97646 10.2252 8.72461 9.97332 8.72461 9.66267ZM8.72461 11.9127C8.72461 11.602 8.97646 11.3502 9.28711 11.3502H13.4121C13.7228 11.3502 13.9746 11.602 13.9746 11.9127C13.9746 12.2233 13.7228 12.4752 13.4121 12.4752H9.28711C8.97646 12.4752 8.72461 12.2233 8.72461 11.9127Z" fill="#F26E3A" stroke="#F26E3A" stroke-width="0.2"/>
</svg>
