<svg width="18" height="18" viewBox="0 0 18 18" fill="none" xmlns="http://www.w3.org/2000/svg">
<path d="M3.67674 2.43567L4.86376 3.41135L6.07508 4.70441L5.77758 6.72204L3.86746 7.68815L2.85938 8.54822L3.35053 9.38621L4.31296 10.4171L4.83283 12.2381L3.38735 13.4509L3.12299 14.5761" stroke="#F26E3A" stroke-width="1.3" stroke-miterlimit="10"/>
<path d="M14.8768 3.45186L13.7892 4.06893L11.5801 4.33181L9.89822 2.97838L9.44168 1.64335L8.84375 0.649994" stroke="#F26E3A" stroke-width="1.3" stroke-miterlimit="10"/>
<path d="M13.9104 9.41494L13.2271 10.9598L12.5246 12.5437L11.2264 13.7521L9.50403 13.8626L8.47754 12.6181L8.82216 11.0202L8.5254 9.44218L9.69843 7.97166L11.3383 7.39583L13.0747 7.81114L13.9104 9.41494Z" stroke="#F26E3A" stroke-width="1.3" stroke-miterlimit="10" stroke-linecap="square"/>
<path d="M8.75039 16.85C13.2239 16.85 16.8504 13.2235 16.8504 8.74999C16.8504 4.27649 13.2239 0.649994 8.75039 0.649994C4.27688 0.649994 0.650391 4.27649 0.650391 8.74999C0.650391 13.2235 4.27688 16.85 8.75039 16.85Z" stroke="#F26E3A" stroke-width="1.3" stroke-miterlimit="10" stroke-linecap="square"/>
</svg>
